<?xml version="1.0" standalone="no"?>
<!DOCTYPE svg PUBLIC "-//W3C//DTD SVG 20010904//EN"
 "http://www.w3.org/TR/2001/REC-SVG-20010904/DTD/svg10.dtd">
<svg version="1.0" xmlns="http://www.w3.org/2000/svg"
 width="409.000000pt" height="409.000000pt" viewBox="0 0 409.000000 409.000000"
 preserveAspectRatio="xMidYMid meet">
<metadata>
Created by potrace 1.11, written by Peter Selinger 2001-2013
</metadata>
<g transform="translate(0.000000,409.000000) scale(0.100000,-0.100000)"
fill="#000000" stroke="none">
<path d="M3471 3525 c-179 -40 -380 -196 -470 -365 -47 -88 -65 -155 -127
-468 -31 -158 -58 -296 -60 -307 -2 -11 -7 -36 -10 -55 -3 -19 -7 -37 -9 -40
-2 -3 -6 -26 -10 -50 -4 -25 -13 -72 -20 -105 -8 -33 -17 -76 -20 -95 -3 -19
-19 -97 -35 -175 -15 -77 -31 -158 -34 -180 -4 -22 -8 -47 -11 -55 -2 -8 -6
-27 -9 -43 -3 -15 -7 -35 -10 -45 -3 -9 -7 -33 -10 -52 -3 -19 -19 -102 -35
-185 -52 -258 -55 -294 -36 -384 35 -171 168 -308 337 -350 72 -17 250 -7 322
18 166 59 328 191 415 340 34 58 75 171 84 236 6 38 10 60 22 115 3 14 7 36
10 50 3 14 7 36 10 50 3 14 7 34 9 45 2 11 43 214 90 450 47 237 87 441 90
455 2 14 7 36 10 50 3 14 8 36 10 50 2 14 11 59 20 100 8 41 18 89 21 105 5
34 10 58 25 130 6 28 12 61 15 75 6 31 14 68 21 100 4 14 8 68 10 120 6 154
-38 263 -145 363 -55 52 -94 73 -172 97 -70 22 -213 24 -298 5z"/>
<path d="M2160 3049 c-157 -18 -291 -87 -420 -218 -129 -131 -184 -256 -224
-501 -3 -19 -8 -44 -10 -55 -10 -49 -47 -233 -52 -260 -3 -16 -23 -118 -44
-225 -22 -107 -42 -213 -46 -235 -3 -22 -12 -71 -21 -110 -8 -38 -17 -81 -19
-95 -3 -14 -16 -80 -29 -146 -40 -195 -29 -310 38 -423 57 -95 175 -184 273
-207 61 -14 199 -16 258 -4 279 57 528 309 569 575 3 17 15 75 26 130 12 55
24 115 27 134 3 18 7 41 9 50 11 49 117 580 121 601 3 14 9 48 15 76 5 28 12
64 15 80 3 16 7 36 9 44 3 8 7 33 11 55 3 22 10 59 15 83 21 98 24 121 23 212
-1 72 -7 108 -23 149 -85 212 -275 317 -521 290z"/>
<path d="M770 2399 c-84 -10 -110 -15 -169 -39 -161 -63 -320 -210 -397 -365
-31 -64 -64 -177 -78 -265 -3 -19 -15 -80 -26 -135 -12 -55 -30 -145 -40 -200
-11 -55 -21 -111 -24 -125 -63 -299 -41 -431 96 -576 87 -92 204 -136 352
-133 172 4 324 70 472 206 92 84 180 231 199 335 3 13 7 34 10 48 3 14 7 36
10 50 3 14 12 59 20 100 8 41 17 84 19 95 2 11 23 115 46 230 49 243 58 340
40 416 -46 193 -196 335 -375 354 -27 3 -59 7 -70 9 -11 1 -49 -1 -85 -5z"/>
</g>
</svg>
