<?xml version="1.0" standalone="no"?>
<!DOCTYPE svg PUBLIC "-//W3C//DTD SVG 20010904//EN"
 "http://www.w3.org/TR/2001/REC-SVG-20010904/DTD/svg10.dtd">
<svg version="1.0" xmlns="http://www.w3.org/2000/svg"
 width="560.000000pt" height="560.000000pt" viewBox="0 0 560.000000 560.000000"
 preserveAspectRatio="xMidYMid meet">
<metadata>
Created by potrace 1.11, written by Peter Selinger 2001-2013
</metadata>
<g transform="translate(0.000000,560.000000) scale(0.100000,-0.100000)"
fill="#000000" stroke="none">
<path d="M1874 5586 c-3 -7 -3 -33 0 -57 4 -24 9 -75 12 -114 3 -38 10 -74 15
-79 5 -6 9 -20 9 -32 0 -12 9 -44 20 -70 11 -26 23 -63 26 -83 3 -20 12 -54
19 -76 14 -43 41 -153 49 -198 8 -45 27 -98 56 -157 67 -134 84 -191 101 -330
9 -77 13 -88 45 -118 39 -38 59 -99 69 -207 4 -38 11 -90 17 -115 5 -25 11
-52 13 -60 23 -110 77 -283 111 -357 24 -52 44 -97 44 -102 0 -5 12 -20 27
-35 25 -25 26 -29 15 -74 -7 -34 -7 -51 1 -60 17 -21 68 -39 115 -40 37 -2 48
3 75 32 18 18 47 41 66 51 32 16 45 16 114 1 33 -8 81 15 103 50 24 35 13 118
-19 148 -13 11 -30 41 -37 66 -7 25 -17 50 -21 55 -4 6 -23 48 -42 95 -72 172
-141 290 -171 290 -21 0 -33 21 -40 65 -3 22 -42 112 -86 200 -74 148 -136
324 -165 465 -9 45 -35 81 -79 111 -23 15 -41 40 -52 69 -31 85 -79 175 -106
202 -27 27 -80 125 -108 198 -7 19 -22 45 -32 56 -11 12 -21 36 -23 54 -3 18
-11 43 -20 56 -8 13 -15 37 -15 53 0 16 -7 37 -16 45 -19 20 -83 21 -90 2z"/>
<path d="M2842 4979 c-23 -9 -24 -11 -18 -97 4 -48 8 -114 9 -147 3 -66 17
-99 48 -116 24 -13 26 -11 33 21 2 14 10 50 17 80 7 30 12 60 11 65 0 6 -3 47
-6 93 -6 107 -27 129 -94 101z"/>
<path d="M3085 4548 c-39 -14 -91 -70 -105 -114 -16 -48 -5 -116 24 -143 25
-23 46 -30 115 -36 51 -5 349 -150 396 -193 63 -57 88 -72 124 -72 56 0 100
40 107 95 4 39 23 73 64 116 24 25 42 55 44 72 5 42 -70 137 -145 182 l-59 37
-139 2 c-126 3 -140 5 -160 25 -25 25 -18 23 -111 26 -41 2 -86 5 -100 8 -14
3 -38 1 -55 -5z"/>
<path d="M4250 4507 c-79 -42 -133 -88 -157 -133 -14 -27 -40 -67 -58 -89 -57
-71 -52 -96 25 -132 l45 -22 18 21 c9 11 17 25 17 32 0 6 9 18 20 26 11 8 20
18 20 22 0 8 27 41 65 82 11 12 33 30 48 40 26 16 54 64 62 107 8 38 -63 69
-105 46z"/>
<path d="M1290 4464 c-6 -14 -7 -32 -3 -39 9 -15 89 -75 101 -75 12 0 82 -60
82 -71 0 -5 8 -17 18 -26 29 -29 165 -133 174 -133 11 0 10 38 -2 45 -5 3 -10
15 -10 26 0 11 -29 47 -67 83 -38 35 -104 98 -148 140 -90 85 -127 98 -145 50z"/>
<path d="M2843 4453 c-8 -3 -13 -23 -13 -49 0 -36 3 -44 19 -44 34 0 57 48 39
83 -9 17 -22 20 -45 10z"/>
<path d="M2065 4361 c-6 -5 -33 -11 -60 -14 -77 -8 -123 -31 -139 -69 -16 -36
-8 -67 20 -83 10 -5 24 -17 31 -26 50 -66 96 -99 137 -99 38 0 55 10 72 42 29
56 32 86 15 167 -15 73 -48 109 -76 82z"/>
<path d="M2893 4205 c-50 -35 -49 -138 3 -165 19 -11 26 -11 40 0 13 11 15 25
9 70 -4 30 -8 63 -9 73 -4 30 -20 38 -43 22z"/>
<path d="M3835 4064 c-32 -34 -32 -52 1 -60 45 -11 81 50 44 74 -18 11 -24 9
-45 -14z"/>
<path d="M1651 4034 c-12 -45 -40 -69 -120 -106 l-63 -29 6 -43 c6 -39 4 -44
-26 -68 -81 -65 -129 -125 -164 -206 -14 -31 -38 -84 -54 -117 -22 -43 -30
-77 -32 -120 -1 -39 -10 -79 -26 -114 -21 -46 -23 -61 -17 -110 13 -93 10
-126 -15 -161 -22 -31 -22 -32 -4 -70 24 -49 57 -64 121 -55 26 4 71 6 98 4
28 -2 91 -3 141 -4 83 0 93 2 126 27 43 33 45 46 36 228 -3 55 1 98 9 124 8
21 13 60 13 85 -2 74 50 251 106 363 14 27 25 51 25 55 0 5 6 15 13 23 7 8 28
41 46 74 32 58 33 58 16 93 -16 33 -16 37 0 54 16 18 16 20 1 37 -10 10 -17
24 -17 30 0 7 -3 12 -7 13 -5 0 -18 2 -31 5 -14 2 -25 -2 -29 -12 -7 -19 -44
-12 -84 17 -40 28 -57 24 -68 -17z"/>
<path d="M4048 4005 c-42 -24 -104 -70 -138 -102 -59 -54 -61 -58 -55 -92 8
-45 38 -94 69 -114 33 -22 63 -89 65 -150 1 -10 12 -28 24 -41 28 -28 62 -28
127 2 25 11 62 23 83 27 21 4 46 15 55 25 9 10 40 21 67 25 116 15 157 33 170
76 8 24 -22 87 -45 94 -18 6 -67 57 -188 193 -61 69 -107 102 -141 102 -9 0
-51 -20 -93 -45z"/>
<path d="M3704 3880 c-12 -5 -35 -26 -50 -47 -15 -21 -52 -61 -82 -89 -59 -56
-63 -80 -17 -110 37 -24 61 -9 131 86 70 95 79 115 66 144 -13 28 -16 29 -48
16z"/>
<path d="M2037 3813 c-10 -3 -22 -16 -27 -29 -8 -19 -5 -30 13 -51 35 -41 60
-63 72 -63 21 0 60 51 56 73 -3 20 -47 67 -63 67 -3 0 -12 2 -20 4 -7 2 -21 2
-31 -1z"/>
<path d="M5216 3773 c-4 -5 -40 -8 -79 -9 -86 -1 -114 -9 -122 -35 -4 -10 -11
-19 -17 -19 -5 0 -44 -14 -86 -31 -59 -23 -86 -29 -117 -25 -22 3 -51 7 -65 9
-14 2 -34 -1 -45 -6 -11 -6 -29 -11 -40 -12 -11 -1 -37 -9 -59 -18 -21 -9 -42
-17 -47 -17 -5 0 -9 -4 -9 -9 0 -17 -67 -51 -111 -57 -24 -4 -52 -10 -61 -15
-10 -6 -18 -7 -18 -3 0 3 -6 1 -13 -5 -8 -6 -16 -9 -18 -6 -3 2 -24 -12 -48
-31 -24 -18 -47 -34 -50 -35 -3 0 -13 -2 -21 -4 -33 -8 -57 -13 -100 -20 -25
-4 -52 -9 -60 -10 -8 -1 -34 -6 -58 -10 -28 -4 -56 -19 -80 -41 -40 -37 -125
-69 -207 -78 -76 -9 -104 -13 -175 -30 -36 -8 -91 -17 -122 -20 -31 -2 -62 -7
-67 -11 -15 -8 -8 -40 12 -63 9 -10 17 -21 17 -25 0 -3 20 -25 45 -49 52 -49
56 -69 44 -183 -6 -63 -5 -72 13 -92 11 -12 23 -21 27 -20 3 0 16 -4 27 -10
18 -11 26 -8 52 15 17 15 48 36 69 47 21 10 58 33 83 51 27 19 69 37 105 44
49 10 67 20 105 57 25 25 63 54 85 65 22 11 64 38 92 59 46 35 57 39 91 33 36
-6 46 -1 123 55 149 106 309 179 407 186 13 1 43 16 68 33 24 18 49 32 54 32
6 0 10 4 10 9 0 15 157 83 219 96 77 16 114 30 119 47 3 15 14 18 58 18 34 0
56 5 61 13 4 8 20 22 36 32 20 13 27 25 27 49 0 27 -5 34 -33 44 -37 13 -110
16 -121 5z"/>
<path d="M2954 3188 c-17 -14 -43 -23 -64 -24 -41 -1 -109 -22 -127 -40 -7 -6
-28 -22 -47 -33 -44 -27 -64 -71 -73 -157 -10 -101 -7 -145 12 -231 9 -39 60
-93 89 -93 12 0 47 -15 77 -33 84 -51 134 -68 177 -61 20 3 40 8 43 9 3 2 31
7 62 10 82 9 177 40 177 57 0 5 6 8 13 8 17 0 64 45 70 67 7 24 21 116 19 125
-1 4 -3 42 -6 85 -2 43 -10 92 -17 108 -22 49 -75 109 -116 130 -21 11 -56 32
-78 46 -80 52 -165 62 -211 27z"/>
<path d="M2365 2919 c-17 -13 -32 -26 -35 -30 -3 -3 -30 -22 -60 -42 -30 -20
-75 -51 -99 -68 -35 -26 -55 -32 -104 -35 -67 -4 -121 -26 -260 -111 -49 -29
-92 -53 -98 -53 -5 0 -9 -4 -9 -8 0 -12 -335 -178 -386 -191 -23 -6 -52 -19
-65 -29 -74 -56 -136 -85 -202 -93 -44 -6 -101 -23 -158 -49 -49 -22 -100 -40
-113 -40 -14 0 -37 -11 -53 -24 -15 -13 -37 -26 -49 -30 -12 -3 -26 -18 -33
-32 -24 -53 29 -84 83 -49 15 10 39 14 73 11 49 -3 120 14 132 32 10 15 44 30
85 36 62 10 89 18 121 34 17 9 50 17 75 17 60 1 80 9 176 65 62 37 90 48 126
48 25 1 67 9 94 18 27 9 63 18 79 21 17 2 41 7 55 10 14 4 68 7 120 8 85 2
101 5 150 32 73 40 141 59 220 62 36 1 82 7 103 12 21 6 52 12 70 14 18 3 43
7 57 10 14 3 51 7 83 9 69 5 107 26 107 62 0 25 -16 64 -30 74 -29 20 -91 169
-104 252 -11 65 -98 98 -151 57z"/>
<path d="M4467 2898 c-11 -6 -17 -22 -17 -44 0 -28 5 -36 27 -45 34 -13 75 1
90 31 16 31 7 46 -30 55 -18 4 -37 9 -43 10 -6 2 -18 -1 -27 -7z"/>
<path d="M5216 2888 c-14 -16 -16 -25 -7 -44 10 -23 26 -28 80 -26 49 3 63 45
23 66 -52 26 -77 27 -96 4z"/>
<path d="M4633 2878 c-34 -43 -14 -86 44 -93 46 -5 54 10 29 58 -23 43 -54 58
-73 35z"/>
<path d="M4908 2885 c-2 -2 -22 -5 -46 -9 -60 -8 -81 -21 -75 -47 14 -51 110
-72 178 -38 38 19 49 21 67 10 31 -16 59 -10 91 20 24 22 26 27 14 43 -10 14
-27 18 -74 18 -34 0 -65 -2 -70 -5 -5 -3 -26 -2 -46 2 -20 5 -37 7 -39 6z"/>
<path d="M3994 2848 c-11 -18 18 -57 55 -71 33 -14 72 -15 126 -3 11 2 44 7
73 11 62 8 84 33 49 55 -26 17 -294 24 -303 8z"/>
<path d="M492 2795 c-33 -14 -82 -58 -82 -72 0 -35 125 -46 330 -31 240 18
264 24 282 64 24 51 -39 67 -154 40 -55 -14 -121 -14 -183 -2 -61 12 -165 12
-193 1z"/>
<path d="M1159 2780 c-19 -13 -4 -36 40 -58 42 -22 65 -21 75 4 7 19 -10 54
-27 55 -57 5 -77 5 -88 -1z"/>
<path d="M1495 2774 c-57 -16 -73 -76 -19 -75 44 1 273 12 322 15 36 3 54 0
60 -10 11 -20 35 0 35 31 0 14 -6 32 -12 38 -15 15 -333 16 -386 1z"/>
<path d="M258 2742 c-28 -6 -23 -50 7 -64 35 -16 78 4 73 34 -3 23 -44 38 -80
30z"/>
<path d="M4535 2700 c-12 -4 -55 -7 -98 -6 -71 2 -78 1 -99 -23 -13 -14 -28
-46 -35 -71 -40 -149 -46 -165 -79 -195 -39 -36 -80 -109 -89 -159 -7 -35 -18
-50 -74 -99 -22 -19 -31 -36 -31 -57 0 -17 -4 -30 -10 -30 -21 0 -50 -41 -50
-71 0 -37 16 -69 34 -69 23 0 46 -36 46 -73 0 -47 28 -66 109 -74 65 -5 66 -5
146 88 17 19 46 45 65 56 49 30 98 93 92 117 -2 5 12 23 30 40 103 96 200 308
221 486 3 19 10 48 16 63 14 37 1 61 -40 76 -37 13 -125 14 -154 1z"/>
<path d="M3322 2546 c-85 -49 -108 -58 -154 -58 -27 1 -62 -4 -76 -9 -15 -6
-61 -12 -102 -14 -41 -2 -76 -8 -78 -14 -2 -5 -12 -19 -23 -32 -27 -32 -25
-85 7 -126 14 -18 23 -37 20 -41 -18 -29 56 -138 104 -154 9 -3 14 -23 15 -59
1 -30 8 -70 17 -89 25 -55 37 -101 42 -160 2 -30 5 -58 5 -62 1 -3 15 -9 32
-13 33 -7 51 -39 44 -76 -4 -22 21 -52 82 -98 31 -23 37 -37 49 -116 3 -22 21
-71 41 -110 52 -103 123 -292 123 -329 0 -17 15 -61 34 -96 19 -36 47 -103 61
-149 15 -45 46 -116 70 -156 24 -41 49 -91 56 -112 7 -21 16 -42 20 -48 4 -5
28 -50 54 -99 26 -49 53 -95 60 -103 8 -7 17 -23 21 -36 4 -12 16 -31 28 -42
21 -19 48 -74 53 -105 3 -23 34 -40 72 -40 31 1 41 7 68 44 18 24 29 47 25 51
-4 4 -8 19 -8 33 -2 34 -33 122 -50 142 -16 20 -34 86 -29 110 2 10 -6 47 -17
82 -26 84 -28 93 -35 163 -3 33 -27 123 -53 200 -51 152 -115 354 -124 397 -3
14 -8 57 -11 95 -6 65 -29 191 -42 223 -4 8 -7 17 -7 20 -1 3 -5 10 -9 17 -4
6 -3 14 2 17 5 3 14 -9 21 -27 42 -105 58 -126 98 -127 13 0 35 6 51 14 37 20
109 99 117 130 9 38 -24 127 -60 159 -17 16 -31 33 -31 39 0 23 -49 15 -78
-14 -17 -15 -34 -28 -39 -28 -5 0 -26 -18 -47 -40 -48 -50 -49 -49 -100 98
-21 61 -53 132 -70 158 -29 45 -36 71 -32 119 6 63 -3 107 -53 257 -63 193
-68 204 -98 214 -37 12 -45 13 -66 0z"/>
<path d="M1697 2197 c-12 -4 -24 -12 -27 -16 -7 -11 -67 -42 -93 -47 -12 -2
-47 -7 -77 -10 -30 -3 -56 -10 -58 -15 -2 -5 -10 -9 -17 -9 -18 0 -56 -54 -57
-82 -3 -64 -5 -60 121 -178 24 -22 56 -47 71 -55 28 -14 29 -13 144 87 115
100 117 102 138 172 28 88 26 115 -9 144 -29 23 -87 27 -136 9z"/>
<path d="M2065 2180 c-24 -10 -54 -43 -83 -91 -28 -46 -27 -54 2 -84 21 -21
29 -23 56 -15 52 15 150 97 150 125 0 16 -76 75 -94 74 -6 0 -20 -4 -31 -9z"/>
<path d="M2115 1882 c-6 -5 -29 -14 -52 -21 -39 -11 -54 -24 -93 -80 -8 -12
-37 -35 -65 -51 -27 -16 -67 -47 -88 -69 -21 -23 -44 -41 -50 -41 -7 0 -22 -8
-35 -18 l-23 -18 27 -27 c15 -15 31 -27 35 -27 19 0 145 -64 169 -85 33 -30
133 -71 190 -78 25 -3 77 -17 115 -31 142 -51 269 -71 335 -53 90 24 104 25
139 12 58 -22 75 -22 98 3 14 16 20 32 17 49 -7 35 -89 109 -144 129 -25 9
-56 29 -70 45 -27 29 -60 45 -113 54 -38 7 -71 27 -114 71 -18 17 -62 58 -98
89 -36 32 -81 80 -100 107 -33 46 -59 58 -80 40z"/>
<path d="M1516 1639 c-14 -11 -33 -33 -41 -48 -8 -16 -28 -34 -45 -41 -16 -7
-30 -16 -30 -20 0 -5 -6 -15 -12 -22 -14 -15 -34 -47 -55 -90 -13 -24 -62 -68
-77 -68 -18 0 -144 -92 -155 -114 -42 -77 90 -64 183 18 16 14 35 26 42 26 26
0 74 53 103 114 29 62 70 106 97 106 15 0 78 60 93 89 8 14 6 25 -10 45 -25
31 -57 33 -93 5z"/>
<path d="M4175 1640 c-29 -32 -27 -49 8 -70 60 -37 91 13 39 63 l-29 27 -18
-20z"/>
<path d="M2872 1601 c-11 -7 -11 -14 3 -42 12 -22 18 -57 18 -106 0 -75 3 -79
42 -64 18 7 20 18 21 101 1 66 -2 98 -11 107 -15 15 -53 17 -73 4z"/>
<path d="M4299 1508 c-10 -34 -3 -52 47 -114 62 -77 77 -100 81 -128 7 -43 33
-57 92 -51 73 7 88 22 67 63 -17 32 -34 47 -145 128 -35 25 -65 53 -68 62 -5
20 -69 54 -74 40z"/>
<path d="M2901 1296 c-20 -21 -21 -25 -6 -39 23 -23 64 -4 65 30 0 7 -8 17
-19 22 -14 8 -23 5 -40 -13z"/>
<path d="M2877 1076 c-27 -21 -29 -57 -7 -101 19 -37 20 -43 6 -69 -8 -16 -13
-38 -10 -50 2 -11 5 -45 8 -74 2 -30 7 -56 9 -59 3 -3 -1 -23 -9 -46 -22 -62
1 -171 39 -183 39 -13 45 -12 68 12 24 26 25 40 14 156 -5 42 -3 79 5 102 6
19 13 79 15 133 4 84 2 101 -16 130 -37 59 -83 78 -122 49z"/>
</g>
</svg>
